<svg xmlns="http://www.w3.org/2000/svg" width="24" height="24" viewBox="0 0 24 24">
  <path fill="currentColor" fill-rule="evenodd" d="
    M 12 0 C 18.628906 0 24 5.371094 24 12 C 24 18.628906 18.628906 24 12 24 C 5.371094 24 0 18.628906 0 12 C 0 5.371094 5.371094 0 12 0 Z 
    M 13.386719 10.363281 C 13.386719 11.136719 12.757812 11.765625 11.984375 11.765625 C 11.210938 11.765625 10.582031 11.136719 10.582031 10.363281 C 10.582031 9.589844 11.210938 8.960938 11.984375 8.960938 C 12.757812 8.960938 13.386719 9.589844 13.386719 10.363281 Z 
    M 13.386719 13.660156 C 13.386719 14.433594 12.757812 15.0625 11.984375 15.0625 C 11.210938 15.0625 10.582031 14.433594 10.582031 13.660156 C 10.582031 12.886719 11.210938 12.257812 11.984375 12.257812 C 12.757812 12.257812 13.386719 12.886719 13.386719 13.660156 Z 
    M 13.386719 16.957031 C 13.386719 17.730469 12.757812 18.359375 11.984375 18.359375 C 11.210938 18.359375 10.582031 17.730469 10.582031 16.957031 C 10.582031 16.183594 11.210938 15.558594 11.984375 15.558594 C 12.757812 15.558594 13.386719 16.183594 13.386719 16.957031 Z 
    M 13.386719 7.066406 C 13.386719 7.839844 12.757812 8.46875 11.984375 8.46875 C 11.210938 8.46875 10.582031 7.839844 10.582031 7.066406 C 10.582031 6.292969 11.210938 5.664062 11.984375 5.664062 C 12.757812 5.664062 13.386719 6.292969 13.386719 7.066406 Z" />
</svg>
